<?xml version="1.0" standalone="no"?>
<!DOCTYPE svg PUBLIC "-//W3C//DTD SVG 20010904//EN"
 "http://www.w3.org/TR/2001/REC-SVG-20010904/DTD/svg10.dtd">
<svg version="1.0" xmlns="http://www.w3.org/2000/svg"
 width="150.000000pt" height="150.000000pt" viewBox="0 0 150.000000 150.000000"
 preserveAspectRatio="xMidYMid meet">
<metadata>
Created by potrace 1.11, written by Peter Selinger 2001-2013
</metadata>
<g transform="translate(0.000000,150.000000) scale(0.100000,-0.100000)"
fill="#000000" stroke="none">
<path d="M648 1409 c-90 -14 -198 -52 -223 -77 -21 -21 -25 -33 -22 -64 4 -42
-11 -67 -41 -69 -87 -4 -268 -82 -290 -126 -46 -90 -61 -489 -27 -731 21 -151
17 -147 145 -168 14 -2 34 -6 45 -9 11 -2 40 -7 65 -10 132 -17 193 -22 270
-24 47 -1 86 -4 88 -6 2 -2 -16 -8 -40 -14 l-43 -11 44 6 c59 7 209 58 291 99
127 64 210 140 258 235 63 128 13 315 -118 438 -34 32 -120 96 -120 90 0 -2
35 -39 78 -83 51 -52 91 -106 117 -155 38 -71 40 -80 40 -160 0 -73 -4 -92
-27 -136 -33 -63 -117 -148 -190 -192 -79 -47 -248 -114 -262 -104 -6 5 -27 9
-46 10 -55 0 -201 11 -208 16 -4 2 -36 7 -72 11 -97 10 -115 12 -152 21 -18 4
-43 8 -55 10 -59 6 -69 19 -79 104 -25 206 -30 440 -12 572 23 174 25 179 75
212 59 39 203 86 263 86 l30 0 0 64 c0 45 4 67 15 76 9 7 57 25 107 40 122 36
287 40 405 8 43 -11 83 -25 88 -30 6 -5 12 -37 15 -71 4 -53 8 -62 25 -63 89
-6 208 -34 265 -62 38 -19 56 -59 91 -205 29 -120 34 -170 33 -327 -1 -122 -6
-161 -28 -245 -36 -137 -44 -146 -147 -167 -80 -16 -153 -27 -229 -33 -19 -2
-35 -4 -35 -5 0 -1 -18 -4 -40 -6 -22 -3 -53 -7 -70 -9 -16 -2 -38 -4 -48 -4
-10 -1 -16 -5 -12 -10 3 -5 20 -8 38 -6 17 2 70 6 117 9 47 3 94 8 105 10 11
2 40 7 65 10 101 14 191 35 215 50 25 17 69 134 83 225 9 62 9 354 -1 416 -10
64 -52 224 -70 268 -21 49 -113 86 -284 113 -21 3 -39 7 -39 7 -1 1 -4 25 -7
52 -6 51 -38 93 -73 96 -17 2 -24 3 -49 12 -63 20 -235 30 -317 16z"/>
<path d="M560 959 c-117 -70 -208 -216 -205 -329 3 -90 58 -193 149 -279 68
-63 66 -45 -3 25 -66 69 -119 168 -124 234 -9 106 53 220 175 321 63 52 66 62
8 28z"/>
<path d="M654 725 c-57 -45 -79 -139 -49 -211 15 -37 26 -50 65 -77 38 -26 41
-20 8 16 -17 17 -38 48 -47 69 -15 32 -17 49 -12 109 0 9 22 40 47 68 48 53
41 68 -12 26z"/>
<path d="M831 734 c33 -21 70 -75 78 -116 10 -47 -6 -96 -48 -148 l-36 -45 30
19 c40 26 49 36 69 73 20 39 21 93 2 137 -18 44 -73 96 -100 96 -19 -1 -19 -2
5 -16z"/>
<path d="M555 100 c-3 -5 -1 -10 4 -10 6 0 11 5 11 10 0 6 -2 10 -4 10 -3 0
-8 -4 -11 -10z"/>
</g>
</svg>
